:FULLY-SPECIFIED
:FORCE-ALL-JOINTS-BE-3DOF
:DEGREES
1223
root -0.843739 14.6668 -17.0053 372.369 18.7976 363.097
lfemur 4.7263 -0.757924 -7.73485
ltibia 29.7139 0 0
lfoot 2.18692 4.84664 0
ltoes -30.6765 0 0
rfemur -54.8372 -13.9545 20.6472
rtibia 78.9518 0 0
rfoot -19.0029 -20.9888 0
rtoes 5.59611 0 0
lowerback 12.7807 0.981571 -4.95323
upperback -3.88077 0.412784 -0.454604
thorax -11.4926 0.531012 2.20949
lowerneck -1.20692 -8.91295 -10.1857
upperneck 0.576954 -11.938 10.9942
head 1.64972 -5.91905 4.58634
lclavicle 8.01176e-15 -9.7464e-15 0
lhumerus -61.3493 -28.4888 115.113
lradius 95.4396 0 0
lwrist 17.2299 0 0
lhand -21.8251 24.4655 0
lfingers 7.12502 0 0
lthumb 2.79711 54.2965 0
rclavicle 6.41398e-15 5.90351e-15 0
rhumerus 66.575 3.5126 -27.3669
rradius 93.9033 0 0
rwrist -11.1621 0 0
rhand -30.5987 -35.1825 0
rfingers 7.12502 0 0
rthumb -2.89005 -64.1893 0
1224
root -0.871568 14.7097 -16.8237 372.27 17.9789 362.53
lfemur 4.54217 -0.937732 -7.74259
ltibia 33.9816 0 0
lfoot 3.31093 2.99304 0
ltoes -30.8353 0 0
rfemur -53.6585 -12.9962 21.412
rtibia 78.7484 0 0
rfoot -19.1589 -21.0416 0
rtoes 4.62651 0 0
lowerback 12.5921 1.03858 -4.60243
upperback -3.91714 0.566941 -0.388959
thorax -11.4266 0.581288 2.04951
lowerneck -1.44784 -8.77136 -10.1029
upperneck 0.710645 -11.7383 11.0072
head 1.70325 -5.81135 4.57446
lclavicle 1.47882e-15 -8.20541e-15 0
lhumerus -61.2957 -28.5371 115.166
lradius 94.5208 0 0
lwrist 13.5282 0 0
lhand -23.3938 23.9817 0
lfingers 7.12502 0 0
lthumb 2.53316 54.1861 0
rclavicle 7.80793e-15 6.45205e-15 0
rhumerus 66.7045 4.49739 -27.3187
rradius 93.9928 0 0
rwrist -11.8624 0 0
rhand -29.9951 -35.378 0
rfingers 7.12502 0 0
rthumb -2.46573 -64.2346 0
1225
root -0.895837 14.7513 -16.6457 372.147 17.2193 362.02
lfemur 4.39314 -1.08326 -7.74884
ltibia 38.5421 0 0
lfoot 4.34067 1.2949 0
ltoes -31.0104 0 0
rfemur -52.4734 -12.0326 22.1811
rtibia 78.4742 0 0
rfoot -19.4102 -21.1265 0
rtoes 3.54599 0 0
lowerback 12.3681 1.09665 -4.25266
upperback -3.86817 0.725161 -0.319606
thorax -11.2422 0.630565 1.89515
lowerneck -1.67461 -8.65364 -9.96979
upperneck 0.685533 -11.5597 10.9291
head 1.7014 -5.71633 4.53129
lclavicle -4.89733e-15 -6.70141e-15 0
lhumerus -60.9436 -28.5644 115.041
lradius 93.4811 0 0
lwrist 10.0155 0 0
lhand -24.911 23.5137 0
lfingers 7.12502 0 0
lthumb 2.11655 54.0117 0
rclavicle 9.21861e-15 7.00717e-15 0
rhumerus 66.8333 5.47676 -27.2709
rradius 94.0693 0 0
rwrist -12.3895 0 0
rhand -29.3955 -35.5723 0
rfingers 7.12502 0 0
rthumb -2.06438 -64.2774 0
1226
root -0.917583 14.7968 -16.4691 371.989 16.5791 361.471
lfemur 4.28255 -1.19126 -7.75349
ltibia 43.3303 0 0
lfoot 5.25901 -0.219541 0
ltoes -31.1997 0 0
rfemur -51.2947 -11.0742 22.9459
rtibia 78.1354 0 0
rfoot -19.7492 -21.2412 0
rtoes 2.37474 0 0
lowerback 12.2803 1.11667 -3.76686
upperback -3.97993 0.84171 -0.262421
thorax -11.313 0.657071 1.65739
lowerneck -1.31767 -8.46539 -9.82138
upperneck 0.520841 -11.3244 10.834
head 1.55612 -5.61108 4.51416
lclavicle -1.10383e-14 -5.25288e-15 0
lhumerus -59.9231 -28.6436 114.679
lradius 92.3347 0 0
lwrist 6.73908 0 0
lhand -26.356 23.0681 0
lfingers 7.12502 0 0
lthumb 1.56638 53.7815 0
rclavicle 1.06293e-14 7.56228e-15 0
rhumerus 66.9599 6.43992 -27.2238
rradius 94.1313 0 0
rwrist -12.7217 0 0
rhand -28.8074 -35.7628 0
rfingers 7.12502 0 0
rthumb -1.69113 -64.3173 0
1227
root -0.933418 14.8341 -16.2978 371.781 15.9635 360.914
lfemur 4.21375 -1.25845 -7.75638
ltibia 48.2812 0 0
lfoot 6.04881 -1.522 0
ltoes -31.4009 0 0
rfemur -50.1356 -10.1318 23.698
rtibia 77.7382 0 0
rfoot -20.1687 -21.3832 0
rtoes 1.1329 0 0
lowerback 12.1678 1.13507 -3.21538
upperback -3.9285 0.974192 -0.168663
thorax -11.1836 0.68288 1.42124
lowerneck -1.37643 -8.32623 -9.7133
upperneck 0.407903 -11.124 10.7363
head 1.4999 -5.51092 4.47936
lclavicle -1.68657e-14 -3.87832e-15 0
lhumerus -58.2875 -28.7704 114.099
lradius 91.0958 0 0
lwrist 3.74621 0 0
lhand -27.7082 22.651 0
lfingers 7.12502 0 0
lthumb 0.901713 53.5034 0
rclavicle 1.20233e-14 8.11082e-15 0
rhumerus 67.083 7.37605 -27.1781
rradius 94.1774 0 0
rwrist -12.8372 0 0
rhand -28.2387 -35.9471 0
rfingers 7.12502 0 0
rthumb -1.35107 -64.3536 0
1228
root -0.94534 14.8652 -16.1299 371.59 15.4116 360.45
lfemur 4.19007 -1.28157 -7.75737
ltibia 53.3297 0 0
lfoot 6.69294 -2.58423 0
ltoes -31.6119 0 0
rfemur -49.009 -9.21579 24.4291
rtibia 77.2887 0 0
rfoot -20.6613 -21.5498 0
rtoes -0.159346 0 0
lowerback 12.1196 1.13454 -2.68019
upperback -3.91438 1.07139 -0.10031
thorax -11.1316 0.693962 1.17327
lowerneck -1.34762 -8.16195 -9.64029
upperneck 0.285209 -10.8971 10.6857
head 1.42901 -5.39973 4.46919
lclavicle -2.23011e-14 -2.59621e-15 0
lhumerus -56.0903 -28.9409 113.32
lradius 89.7786 0 0
lwrist 1.08413 0 0
lhand -28.947 22.2689 0
lfingers 7.12502 0 0
lthumb 0.141645 53.1854 0
rclavicle 1.33838e-14 8.64619e-15 0
rhumerus 67.2011 8.27434 -27.1342
rradius 94.2061 0 0
rwrist -12.9844 0 0
rhand -27.697 -36.1226 0
rfingers 7.12502 0 0
rthumb -1.04932 -64.3858 0
1229
root -0.951591 14.8919 -15.9638 371.469 14.7835 360.028
lfemur 3.87326 -1.23418 -7.81964
ltibia 58.4108 0 0
lfoot 7.17425 -3.37795 0
ltoes -31.8305 0 0
rfemur -47.9279 -8.33682 25.1305
rtibia 76.7931 0 0
rfoot -21.2198 -21.7388 0
rtoes -1.48184 0 0
lowerback 11.9814 1.15439 -2.18725
upperback -3.89818 1.19247 -0.0143693
thorax -11.025 0.720177 0.964647
lowerneck -1.41673 -8.00637 -9.444
upperneck 0.294299 -10.679 10.4106
head 1.39432 -5.29071 4.36502
lclavicle -2.72661e-14 -1.42506e-15 0
lhumerus -53.3852 -29.1507 112.36
lradius 88.3975 0 0
lwrist -1.19991 0 0
lhand -30.0518 21.9282 0
lfingers 7.12502 0 0
lthumb -0.694748 52.8354 0
rclavicle 1.46941e-14 9.16181e-15 0
rhumerus 67.3129 9.12398 -27.0927
rradius 94.216 0 0
rwrist -13.4083 0 0
rhand -27.1901 -36.2868 0
rfingers 7.12502 0 0
rthumb -0.790981 -64.4134 0
1230
root -0.953158 14.9143 -15.7997 371.236 14.2105 359.595
lfemur 2.95903 -1.09743 -7.99932
ltibia 63.4593 0 0
lfoot 7.4756 -3.87492 0
ltoes -32.0545 0 0
rfemur -46.9054 -7.50546 25.794
rtibia 76.2575 0 0
rfoot -21.8369 -21.9475 0
rtoes -2.81442 0 0
lowerback 11.9229 1.16872 -1.63527
upperback -3.84452 1.31579 0.104342
thorax -10.9222 0.745058 0.757189
lowerneck -1.43379 -7.81017 -9.25668
upperneck 0.221067 -10.4047 10.1026
head 1.32115 -5.15577 4.25891
lclavicle -3.16824e-14 -3.83352e-16 0
lhumerus -50.2254 -29.3958 111.24
lradius 86.9665 0 0
lwrist -3.05863 0 0
lhand -31.002 21.6351 0
lfingers 7.12502 0 0
lthumb -1.58839 52.4614 0
rclavicle 1.59375e-14 9.65111e-15 0
rhumerus 67.4168 9.91415 -27.054
rradius 94.369 0 0
rwrist -14.0826 0 0
rhand -26.7257 -36.4372 0
rfingers 7.12502 0 0
rthumb -0.581159 -64.4358 0
1231
root -0.953919 14.9353 -15.635 371.02 13.5888 359.283
lfemur 1.50169 -0.879451 -8.28574
ltibia 68.4102 0 0
lfoot 7.57986 -4.04685 0
ltoes -32.2818 0 0
rfemur -45.9545 -6.73228 26.4111
rtibia 75.6881 0 0
rfoot -22.5051 -22.1736 0
rtoes -4.13691 0 0
lowerback 11.9262 1.19723 -1.23674
upperback -3.80293 1.42959 0.207756
thorax -10.8723 0.776045 0.620577
lowerneck -1.51922 -7.62598 -9.06303
upperneck 0.332896 -10.1536 9.80585
head 1.31749 -5.02942 4.14657
lclavicle -3.54715e-14 5.10422e-16 0
lhumerus -46.6645 -29.672 109.977
lradius 85.5 0 0
lwrist -4.44481 0 0
lhand -31.7769 21.3961 0
lfingers 7.12502 0 0
lthumb -2.52018 52.0715 0
rclavicle 1.70973e-14 1.01075e-14 0
rhumerus 67.5114 10.634 -27.0189
rradius 94.8103 0 0
rwrist -14.981 0 0
rhand -26.3116 -36.5714 0
rfingers 7.12502 0 0
rthumb -0.424963 -64.4525 0
1232
root -0.951651 14.9511 -15.4711 370.813 12.9417 358.918
lfemur -0.444446 -0.588355 -8.66823
ltibia 73.1984 0 0
lfoot 7.44292 -3.97067 0
ltoes -32.5101 0 0
rfemur -45.0881 -6.02787 26.9733
rtibia 75.091 0 0
rfoot -23.2173 -22.4146 0
rtoes -5.42916 0 0
lowerback 11.9055 1.23547 -0.778859
upperback -3.79694 1.5678 0.326212
thorax -10.8463 0.815817 0.461669
lowerneck -1.46473 -7.44393 -8.91526
upperneck 0.407179 -9.91176 9.19437
head 1.40782 -4.92341 4.39403
lclavicle -3.85551e-14 1.23777e-15 0
lhumerus -42.756 -29.9751 108.59
lradius 84.0121 0 0
lwrist -5.31116 0 0
lhand -32.3559 21.2175 0
lfingers 7.12502 0 0
lthumb -3.47106 51.6736 0
rclavicle 1.81567e-14 1.05244e-14 0
rhumerus 67.5954 11.2728 -26.9876
rradius 95.5139 0 0
rwrist -16.077 0 0
rhand -25.9554 -36.6868 0
rfingers 7.12502 0 0
rthumb -0.3275 -64.4629 0
